<svg width="20" height="20" viewBox="0 0 20 20" fill="none" xmlns="http://www.w3.org/2000/svg">
<path d="M3.33301 6.6665H16.6663M3.33301 6.6665V14C3.33301 14.9334 3.33301 15.3999 3.51466 15.7564C3.67445 16.07 3.92924 16.3252 4.24284 16.485C4.59901 16.6665 5.0655 16.6665 5.9971 16.6665H14.0022C14.9338 16.6665 15.3997 16.6665 15.7558 16.485C16.0694 16.3252 16.3251 16.07 16.4849 15.7564C16.6663 15.4002 16.6663 14.9344 16.6663 14.0028V6.6665M3.33301 6.6665V6C3.33301 5.06658 3.33301 4.59952 3.51466 4.243C3.67445 3.9294 3.92924 3.67462 4.24284 3.51483C4.59936 3.33317 5.06642 3.33317 5.99984 3.33317H6.66634M16.6663 6.6665V5.99726C16.6663 5.06567 16.6663 4.59917 16.4849 4.243C16.3251 3.9294 16.0694 3.67462 15.7558 3.51483C15.3993 3.33317 14.9333 3.33317 13.9998 3.33317H13.333M13.333 1.6665V3.33317M13.333 3.33317H6.66634M6.66634 1.6665V3.33317" stroke="#A9A9A9" stroke-width="1.66667" stroke-linecap="round" stroke-linejoin="round"/>
</svg>
