<svg width="14" height="20" viewBox="0 0 14 20" fill="none" xmlns="http://www.w3.org/2000/svg">
<path id="Vector" d="M13.8586 10.3394C13.8521 12.4685 12.2307 14.1021 10.2121 14.1216C9.32003 14.1314 8.44421 14.226 7.627 14.6042C6.39956 15.1716 5.65724 16.0878 5.59212 17.4964C5.53026 18.8365 4.56654 19.857 3.28375 19.9875C2.05631 20.1114 0.91352 19.306 0.584683 18.0898C0.187474 16.6127 1.23585 14.9955 2.7205 14.9368C5.21119 14.839 6.28887 13.1532 6.46142 11.0893C6.55259 10.0166 6.47119 8.95034 6.01212 7.9526C5.42608 6.68423 4.47863 5.91146 3.04933 5.81365C2.00422 5.74191 1.21305 5.26261 0.780031 4.28769C0.376311 3.37798 0.500032 2.50414 1.08282 1.7053C1.67538 0.890148 2.76933 0.524963 3.7591 0.789072C4.73584 1.04992 5.58235 1.91724 5.59538 2.88563C5.63119 5.44846 7.62375 6.72661 9.93863 6.72987C11.254 6.72987 12.3512 7.18636 13.1489 8.26235C13.6307 8.91121 13.8424 9.65137 13.8554 10.3394L13.8586 10.3394Z" fill="#1AB7DA"/>
</svg>
