<svg width="173" height="38" viewBox="0 0 173 38" fill="none" xmlns="http://www.w3.org/2000/svg">
<g clip-path="url(#clip0_515_22445)">
<path d="M69.9804 27.9758H66.2821C65.536 24.2814 64.7922 20.594 64.0323 16.8262C63.9633 16.9732 63.9218 17.0559 63.8873 17.1432C62.4342 20.6767 60.9789 24.2079 59.5327 27.7437C59.4521 27.9413 59.3508 27.9941 59.1482 27.9918C58.181 27.9804 57.2139 27.9804 56.249 27.9918C56.0395 27.9941 55.9473 27.9252 55.869 27.7345C54.4068 24.224 52.9376 20.7181 51.4708 17.2122C51.4385 17.1317 51.3971 17.0559 51.3303 16.9112C50.5543 20.6492 49.7967 24.3113 49.0368 27.9735H45.3086C46.5889 21.7473 47.867 15.5419 49.1473 9.32268C50.1306 9.32268 51.0954 9.31808 52.0603 9.33187C52.1363 9.33187 52.2422 9.46052 52.279 9.55242C53.0758 11.4731 53.8656 13.3961 54.6578 15.319C55.618 17.6579 56.5783 19.9967 57.5409 22.3355C57.5708 22.409 57.6076 22.4825 57.6629 22.5997C57.7228 22.471 57.7711 22.3814 57.8103 22.2872C59.5604 18.0438 61.3128 13.8027 63.056 9.55702C63.132 9.37552 63.2218 9.31808 63.4129 9.32038C64.2603 9.33187 65.1077 9.32957 65.9528 9.32038C66.1209 9.32038 66.1877 9.36633 66.2223 9.53864C67.1364 14.0256 68.0576 18.5125 68.9787 22.9972C69.301 24.5663 69.628 26.1355 69.9504 27.707C69.9665 27.7874 69.9711 27.8678 69.985 27.9758H69.9804Z" fill="#124B9A"/>
<path d="M71.4414 23.8525C72.6642 23.5148 73.8179 23.1955 74.9807 22.8738C75.4252 23.8525 76.2841 24.2799 77.2328 24.5349C78.7365 24.9415 80.2264 24.8887 81.6242 24.1374C82.018 23.9261 82.3818 23.6136 82.6789 23.2759C83.1072 22.7865 83.0726 22.1961 82.6628 21.6906C82.1631 21.0749 81.4907 20.7027 80.7423 20.5143C79.9524 20.3144 79.1395 20.2065 78.3359 20.0571C77.1085 19.8297 75.8719 19.6275 74.7574 19.0118C73.6889 18.4213 72.7862 17.654 72.2405 16.542C71.3815 14.7936 71.8352 12.7765 73.3918 11.3452C74.5156 10.3136 75.8673 9.73694 77.3572 9.5026C79.105 9.2269 80.8252 9.35556 82.4739 10.0425C83.7404 10.5686 84.8296 11.3268 85.5182 12.5536C85.6333 12.7604 85.7254 12.9787 85.8429 13.2245C84.68 13.6105 83.5424 13.9895 82.4094 14.3663C81.7071 13.2888 80.6432 12.9074 79.4481 12.804C78.3128 12.7053 77.2282 12.8868 76.2657 13.5507C76.1966 13.5967 76.1298 13.6472 76.0676 13.6978C75.3123 14.3112 75.2962 15.0372 76.0331 15.6667C76.5558 16.1147 77.1776 16.3536 77.8477 16.4777C79.128 16.7166 80.4199 16.9119 81.6887 17.2083C83.1417 17.546 84.4175 18.249 85.4169 19.3817C87.1393 21.3345 87.0541 23.949 85.2257 25.8031C84.0145 27.0299 82.5177 27.7146 80.839 28.004C78.7918 28.3556 76.7884 28.2039 74.8794 27.3217C73.7257 26.7887 72.7171 26.0604 72.0263 24.9714C71.8075 24.6291 71.6487 24.2477 71.4414 23.8479V23.8525Z" fill="#124B9A"/>
<path d="M129.782 12.4452C128.863 13.1827 127.961 13.9041 127.058 14.6278C126.733 14.3613 126.436 14.0856 126.109 13.8536C123.051 11.6756 118.013 12.9369 117.055 17.4192C116.613 19.4892 117.02 21.4145 118.524 22.986C119.809 24.33 121.432 24.8561 123.277 24.7229C124.755 24.6149 125.994 23.9923 127.03 22.9171C127.949 23.6522 128.856 24.3805 129.764 25.1088C127.864 27.3925 124.085 28.7986 120.285 27.8359C116.249 26.8136 113.435 23.3605 113.248 19.2319C113.062 15.108 115.519 11.3884 119.378 10.0053C123.185 8.64063 127.429 9.7572 129.777 12.4452H129.782Z" fill="#124B9A"/>
<path d="M101.85 22.9234C102.771 23.6632 103.674 24.3869 104.577 25.1106C102.534 27.5206 98.5918 28.8578 94.7416 27.7389C91.1101 26.6844 88.0958 23.3783 88.0474 18.8937C88.0037 14.7789 90.5298 11.2385 94.3754 9.94046C98.1612 8.66077 102.306 9.82099 104.584 12.447C103.674 13.1753 102.764 13.9036 101.892 14.6043C101.376 14.2298 100.918 13.8209 100.393 13.5337C97.1687 11.7669 92.6737 13.3246 91.847 17.483C91.4394 19.5301 91.8401 21.4209 93.3138 22.974C94.5942 24.3226 96.2176 24.8556 98.0621 24.7269C99.5083 24.6258 100.733 24.0331 101.749 23.0084C101.774 22.9831 101.804 22.9625 101.848 22.928L101.85 22.9234Z" fill="#124B9A"/>
<path d="M141.43 14.6119H145.082V16.2753C145.179 16.1903 145.229 16.1489 145.278 16.103C146.671 14.798 148.333 14.1984 150.233 14.2857C150.823 14.3132 151.428 14.4005 151.988 14.582C153.418 15.0484 154.196 16.0984 154.436 17.5572C154.493 17.9088 154.509 18.2695 154.512 18.6256C154.516 21.6169 154.514 24.6104 154.514 27.6017V27.9808H150.809V27.6546C150.809 25.0929 150.811 22.5335 150.807 19.9719C150.807 19.6801 150.788 19.3814 150.731 19.0965C150.539 18.1684 149.929 17.6101 148.985 17.4676C147.518 17.2471 146.282 17.6928 145.275 18.7703C145.172 18.8829 145.098 19.0713 145.098 19.2252C145.086 22.0235 145.091 24.8241 145.091 27.6224V27.9854H141.43V14.6119Z" fill="#124B9A"/>
<path d="M170.549 23.7887C171.314 24.3998 172.076 25.0132 172.84 25.6267C170.54 28.4571 165.884 28.8684 163.021 26.2722C160.111 23.6325 160.102 19.0421 162.998 16.3955C165.872 13.7718 170.538 14.1922 172.84 17.0181C172.076 17.6315 171.311 18.2449 170.549 18.856C168.838 16.8389 166.04 17.3719 164.845 18.7366C163.579 20.1794 163.602 22.5504 164.896 23.9817C166.022 25.2246 168.776 25.8311 170.549 23.7887Z" fill="#124B9A"/>
<path d="M134.881 27.9941H131.254V9.4375H134.881V27.9941Z" fill="#124B9A"/>
<path d="M19.1118 11.2312C17.6081 11.2266 16.4544 10.0825 16.4406 8.65804C16.4337 8.02853 16.3669 7.41051 16.0998 6.83385C15.6991 5.96771 15.052 5.44389 14.0572 5.39794C13.1108 5.35429 12.39 4.67424 12.2979 3.76904C12.2104 2.9029 12.7792 2.09649 13.6381 1.86444C14.6813 1.58415 15.8234 2.32394 15.8649 3.37158C15.934 5.12914 17.1245 5.8896 18.5822 6.01136C19.3398 6.07569 20.0928 6.01825 20.7974 5.69431C21.6932 5.28077 22.2389 4.61221 22.308 3.60362C22.3587 2.86614 22.6972 2.30785 23.3857 2.00229C24.0282 1.71741 24.6453 1.80471 25.2095 2.21596C25.7852 2.63409 26.0431 3.40604 25.8566 4.10447C25.6723 4.79371 25.0598 5.39105 24.3759 5.40024C22.5659 5.42551 21.6632 6.83155 21.6609 8.46505C21.6609 9.39322 21.3386 10.1675 20.5786 10.7303C20.1204 11.0704 19.5977 11.2197 19.1118 11.2289V11.2312Z" fill="#1BB7DA"/>
<path d="M25.1566 24.7953C25.9879 24.8182 26.6626 25.1583 27.2014 25.8084C27.5284 26.2013 27.8669 26.6011 28.263 26.9181C29.1772 27.6533 30.1259 27.6763 31.1253 27.072C31.7724 26.6792 32.4402 26.6723 33.0781 27.0858C33.7159 27.5017 33.9877 28.1243 33.8656 28.8664C33.7413 29.6176 33.2853 30.1323 32.5323 30.3161C31.8208 30.4907 31.1714 30.3161 30.7224 29.7348C29.9601 28.7423 28.7788 28.4092 27.4939 29.0111C26.6971 29.3833 26.0109 29.9025 25.525 30.6446C24.9309 31.5544 24.8733 32.4826 25.4628 33.4337C26.0892 34.4469 25.6333 35.722 24.5325 36.0919C23.6966 36.3745 22.8055 36.0344 22.3725 35.2717C21.9465 34.5181 22.1169 33.5532 22.8055 33.011C23.418 32.5262 23.7795 31.922 23.8118 31.1363C23.8325 30.6216 23.7058 30.1346 23.4756 29.6797C23.3397 29.4109 23.1785 29.1513 23.0081 28.9031C21.9028 27.2903 22.7824 25.1698 24.7098 24.8228C24.8526 24.7976 25.0023 24.8022 25.1612 24.793L25.1566 24.7953Z" fill="#1BB7DA"/>
<path d="M6.90408 13.76C6.88796 12.4734 6.39517 11.6026 5.23688 11.1408C4.38256 10.7985 3.95424 9.88873 4.19143 9.02029C4.4171 8.19321 5.24839 7.60506 6.05897 7.69695C7.02612 7.80723 7.71925 8.52174 7.72847 9.466C7.73077 9.74399 7.62945 10.022 7.588 10.3023C7.43141 11.3844 7.88275 12.2023 8.76241 12.7858C9.12394 13.0271 9.53844 13.2017 9.95063 13.3487C11.102 13.7577 11.8067 14.7754 11.7445 15.9954C11.6869 17.1533 10.8556 18.1136 9.68121 18.371C9.20453 18.4766 8.73247 18.4307 8.26731 18.2837C7.62024 18.0792 6.95934 17.985 6.28233 18.1182C5.43031 18.2837 4.84771 18.7684 4.53224 19.584C4.14768 20.5788 3.14137 21.0314 2.17651 20.6661C1.31298 20.3376 0.845518 19.3841 1.10803 18.4835C1.36364 17.6105 2.28244 16.981 3.13676 17.2383C4.90989 17.7736 6.07969 16.6662 6.56557 15.3061C6.66459 15.0304 6.7521 14.7502 6.81197 14.4653C6.86723 14.208 6.87875 13.9392 6.90177 13.7623L6.90408 13.76Z" fill="#1BB7DA"/>
<path d="M15.6071 27.4551C15.6071 28.0111 15.432 28.5005 15.1166 28.9485C14.7228 29.5091 14.4073 30.1041 14.3152 30.7979C14.2001 31.671 14.4718 32.3878 15.1626 32.9392C15.7752 33.4285 16.0169 34.0603 15.8327 34.8185C15.6577 35.5445 15.1741 36.0017 14.4396 36.1418C13.6704 36.2866 13.0303 36.027 12.5973 35.3768C12.1782 34.7473 12.1644 34.0718 12.5766 33.4331C13.0303 32.7301 13.1961 31.9834 12.8691 31.2138C12.6895 30.7864 12.3993 30.3775 12.07 30.0467C11.393 29.3643 10.587 28.875 9.59916 28.7601C8.70799 28.6544 7.97801 28.9508 7.39772 29.6354C6.83585 30.3017 6.07133 30.513 5.32063 30.2236C4.33275 29.8422 3.88141 28.721 4.33505 27.7699C4.77948 26.8371 5.97001 26.419 6.83815 26.9979C8.26586 27.9491 9.70508 27.354 10.5963 26.2719C10.8242 25.9962 11.0292 25.6907 11.2986 25.4632C12.1345 24.7648 13.0878 24.6201 14.0803 25.0704C15.0912 25.5276 15.5679 26.3615 15.6001 27.4551H15.6071Z" fill="#1BB7DA"/>
<path d="M32.2096 7.76953C33.0869 7.76953 33.7916 8.35079 33.9712 9.21693C34.1393 10.0256 33.7064 10.9079 32.9165 11.1859C31.6109 11.6476 30.9384 12.7849 31.2401 14.3357C31.4197 15.2593 31.7628 16.1162 32.4836 16.7664C33.1353 17.3545 33.8883 17.5613 34.7564 17.3408C35.7259 17.0949 36.6378 17.5751 36.9533 18.478C37.2595 19.3441 36.8519 20.3045 36.0091 20.6973C35.0834 21.1293 33.9505 20.7295 33.605 19.76C33.1376 18.4504 31.8757 17.7956 30.3743 18.1035C30.015 18.177 29.665 18.3011 29.3035 18.3585C27.984 18.5699 26.7336 17.7336 26.3974 16.4333C26.0658 15.149 26.7797 13.7981 28.0393 13.3547C28.7393 13.1088 29.4117 12.8216 29.9252 12.2611C30.4986 11.6339 30.7036 10.9148 30.4802 10.0762C30.1555 8.85393 30.9799 7.76953 32.2073 7.76953H32.2096Z" fill="#1BB7DA"/>
<path d="M159.505 27.9925H155.855V14.6328H159.505V27.9925Z" fill="#124B9A"/>
<path d="M136.25 27.985V14.6367H139.886V27.985H136.25Z" fill="#124B9A"/>
<path d="M9.15981 24.792C7.72059 24.792 6.54848 23.6226 6.55078 22.1844C6.55078 20.7554 7.74361 19.5768 9.17593 19.586C10.599 19.5952 11.7642 20.7623 11.7711 22.1867C11.778 23.618 10.6013 24.792 9.15981 24.792Z" fill="#1BB7DA"/>
<path d="M16.4398 29.3416C16.4398 27.9195 17.605 26.7615 19.0373 26.7501C20.4627 26.7409 21.6602 27.9309 21.6579 29.3554C21.6579 30.7867 20.4765 31.9561 19.035 31.9561C17.5935 31.9561 16.4352 30.789 16.4375 29.3416H16.4398Z" fill="#1BB7DA"/>
<path d="M31.5262 22.212C31.5216 23.6571 30.3633 24.799 28.901 24.7921C27.4756 24.7852 26.3196 23.6158 26.3242 22.1844C26.3265 20.7439 27.5079 19.5745 28.9425 19.586C30.3932 19.5998 31.5308 20.7531 31.5262 22.212Z" fill="#1BB7DA"/>
<path d="M22.5547 10.5971C22.5593 9.14737 23.7199 8.00323 25.1798 8.00783C26.6191 8.01242 27.7635 9.18413 27.7566 10.6476C27.7497 12.0537 26.5799 13.2116 25.1591 13.2139C23.7153 13.2162 22.5524 12.0468 22.557 10.5994L22.5547 10.5971Z" fill="#1BB7DA"/>
<path d="M15.5385 10.6017C15.5385 12.0445 14.3687 13.2162 12.9341 13.2116C11.4972 13.207 10.3044 12.0146 10.3205 10.5994C10.3366 9.15656 11.5087 8.00323 12.9502 8.00783C14.3779 8.01242 15.5385 9.17494 15.5385 10.604V10.6017Z" fill="#1BB7DA"/>
<path d="M157.673 12.968C156.655 12.9634 155.824 12.1271 155.84 11.1231C155.856 10.11 156.694 9.29665 157.71 9.31273C158.721 9.32882 159.527 10.1421 159.524 11.1438C159.524 12.1593 158.698 12.9726 157.675 12.968H157.673Z" fill="#124B9A"/>
<path d="M138.064 9.3086C139.094 9.3063 139.909 10.1104 139.911 11.1282C139.911 12.1345 139.101 12.9478 138.094 12.9524C137.056 12.957 136.243 12.1643 136.238 11.1443C136.234 10.1173 137.035 9.3109 138.067 9.3086H138.064Z" fill="#124B9A"/>
<path d="M10.7383 5.12359C10.736 6.12528 9.93696 6.90871 8.92375 6.90871C7.8806 6.90871 7.09536 6.12069 7.09766 5.07994C7.09996 4.07135 7.91284 3.26724 8.92835 3.26954C9.95078 3.27183 10.7429 4.08284 10.7383 5.12359Z" fill="#1BB7DA"/>
<path d="M35.4112 15.4992C34.3957 15.4924 33.5989 14.6859 33.6035 13.6682C33.6104 12.6573 34.421 11.8532 35.4319 11.8555C36.452 11.8555 37.2672 12.6849 37.2557 13.7049C37.2442 14.7135 36.429 15.5061 35.4089 15.4992H35.4112Z" fill="#1BB7DA"/>
<path d="M10.7383 32.88C10.7383 33.9024 9.94617 34.7065 8.93526 34.7111C7.90132 34.7157 7.09766 33.9162 7.09766 32.8869C7.09766 31.8668 7.89211 31.0742 8.91684 31.0742C9.94387 31.0742 10.7383 31.8599 10.7406 32.8823L10.7383 32.88Z" fill="#1BB7DA"/>
<path d="M29.171 31.0703C30.1865 31.0703 31.0063 31.8813 31.0086 32.883C31.0086 33.8962 30.1819 34.7118 29.1572 34.7095C28.1532 34.7072 27.3265 33.8755 27.338 32.8807C27.3472 31.8698 28.1624 31.068 29.1733 31.0703H29.171Z" fill="#1BB7DA"/>
<path d="M2.69406 22.4771C3.7211 22.5 4.50634 23.3202 4.49022 24.3518C4.47179 25.3535 3.62208 26.1415 2.58814 26.1185C1.59335 26.0956 0.817316 25.257 0.840343 24.23C0.863371 23.2375 1.69236 22.4541 2.69406 22.4771Z" fill="#1BB7DA"/>
<path d="M29.1526 6.90883C28.1394 6.90423 27.3265 6.08634 27.338 5.08235C27.3472 4.06917 28.1831 3.25816 29.2055 3.26965C30.1888 3.28114 31.0086 4.10593 31.0109 5.09154C31.0109 6.10012 30.1819 6.91342 29.1549 6.90883H29.1526Z" fill="#1BB7DA"/>
<path d="M20.8624 36.1802C20.8601 37.1888 20.0426 38.0044 19.0409 37.9998C18.0392 37.9952 17.2148 37.1704 17.2148 36.171C17.2148 35.1602 18.0554 34.3285 19.064 34.34C20.0749 34.3514 20.867 35.1602 20.8647 36.1802H20.8624Z" fill="#1BB7DA"/>
<path d="M35.4553 22.4766C36.4869 22.4972 37.2767 23.3174 37.2583 24.3444C37.2399 25.3576 36.4063 26.1387 35.3631 26.1203C34.3799 26.102 33.5854 25.268 33.6038 24.2686C33.6223 23.2577 34.4466 22.4582 35.4529 22.4789L35.4553 22.4766Z" fill="#1BB7DA"/>
<path d="M19.0367 2.01081e-05C20.066 -0.00457481 20.8605 0.778859 20.8628 1.79893C20.8628 2.8236 20.0752 3.63001 19.0666 3.6392C18.0442 3.64609 17.2129 2.82819 17.2129 1.81501C17.2129 0.804131 18.0189 0.00231757 19.0367 2.01081e-05Z" fill="#1BB7DA"/>
<path d="M0.839925 13.6607C0.849136 12.6475 1.65971 11.8503 2.67522 11.8595C3.69535 11.8663 4.49901 12.6934 4.4875 13.7204C4.47598 14.7198 3.64469 15.517 2.62917 15.5032C1.60905 15.4871 0.830714 14.6876 0.839925 13.6607Z" fill="#1BB7DA"/>
</g>
<defs>
<clipPath id="clip0_515_22445">
<rect width="172" height="38" fill="white" transform="translate(0.839844)"/>
</clipPath>
</defs>
</svg>
