<svg width="148" height="48" viewBox="0 0 148 48" fill="none" xmlns="http://www.w3.org/2000/svg">
<rect x="0.5" width="147" height="48" rx="24" fill="#134A9B"/>
<path d="M32.7923 28.5L29.8003 24.324L26.8083 28.5H24.5683L28.5683 23.028L24.8083 17.828H27.0483L29.8003 21.748L32.5363 17.828H34.7923L31.0483 23.012L35.0323 28.5H32.7923ZM39.9544 28.692C39.3784 28.692 38.8398 28.596 38.3384 28.404C37.8478 28.212 37.4211 27.94 37.0584 27.588C36.6958 27.2253 36.4131 26.7933 36.2104 26.292C36.0078 25.7907 35.9064 25.236 35.9064 24.628C35.9064 24.0733 36.0024 23.5507 36.1944 23.06C36.3864 22.5587 36.6531 22.1267 36.9944 21.764C37.3464 21.4013 37.7624 21.1133 38.2424 20.9C38.7224 20.6867 39.2504 20.58 39.8264 20.58C40.4024 20.58 40.9251 20.6867 41.3944 20.9C41.8638 21.1027 42.2638 21.396 42.5944 21.78C42.9251 22.1533 43.1811 22.596 43.3624 23.108C43.5438 23.62 43.6344 24.18 43.6344 24.788V25.188H37.6664C37.6984 25.476 37.7731 25.7533 37.8904 26.02C38.0184 26.276 38.1838 26.5 38.3864 26.692C38.5998 26.884 38.8504 27.0387 39.1384 27.156C39.4371 27.2627 39.7678 27.316 40.1304 27.316C40.5038 27.316 40.8931 27.2467 41.2984 27.108C41.7038 26.9587 42.0451 26.7453 42.3224 26.468L43.0904 27.572C42.7064 27.9453 42.2424 28.228 41.6984 28.42C41.1544 28.6013 40.5731 28.692 39.9544 28.692ZM42.0024 24.004C41.9918 23.78 41.9438 23.5453 41.8584 23.3C41.7731 23.0547 41.6398 22.836 41.4584 22.644C41.2878 22.4413 41.0691 22.276 40.8024 22.148C40.5358 22.02 40.2104 21.956 39.8264 21.956C39.4638 21.956 39.1491 22.02 38.8824 22.148C38.6264 22.2653 38.4078 22.4253 38.2264 22.628C38.0558 22.82 37.9224 23.0387 37.8264 23.284C37.7304 23.5293 37.6718 23.7693 37.6504 24.004H42.0024ZM54.9647 28.5V23.46C54.9647 23.044 54.8634 22.708 54.6607 22.452C54.4687 22.196 54.1487 22.068 53.7007 22.068C53.3274 22.068 52.9754 22.18 52.6447 22.404C52.3247 22.6173 52.0794 22.8467 51.9087 23.092V28.5H50.2287V23.46C50.2287 23.044 50.1274 22.708 49.9247 22.452C49.7327 22.196 49.4074 22.068 48.9487 22.068C48.5754 22.068 48.2287 22.18 47.9087 22.404C47.5994 22.6173 47.354 22.852 47.1727 23.108V28.5H45.4927V20.772H47.1727V21.828C47.2474 21.7107 47.3647 21.5827 47.5247 21.444C47.6954 21.2947 47.8874 21.156 48.1007 21.028C48.3247 20.9 48.57 20.7933 48.8367 20.708C49.114 20.6227 49.3967 20.58 49.6847 20.58C50.2607 20.58 50.7247 20.7133 51.0767 20.98C51.4287 21.236 51.6687 21.5773 51.7967 22.004C51.9034 21.8333 52.0474 21.6627 52.2287 21.492C52.41 21.3213 52.6127 21.1667 52.8367 21.028C53.0714 20.8893 53.322 20.7827 53.5887 20.708C53.8554 20.6227 54.1327 20.58 54.4207 20.58C55.1354 20.58 55.6847 20.772 56.0687 21.156C56.4527 21.54 56.6447 22.1267 56.6447 22.916V28.5H54.9647ZM65.6502 28.692C64.9995 28.692 64.5035 28.5213 64.1622 28.18C63.8315 27.8387 63.6662 27.348 63.6662 26.708V22.244H62.3862V20.772H63.6662V18.66H65.3462V20.772H66.9142V22.244H65.3462V26.292C65.3462 26.5587 65.4049 26.7773 65.5222 26.948C65.6502 27.1187 65.8369 27.204 66.0822 27.204C66.2422 27.204 66.3915 27.1773 66.5302 27.124C66.6689 27.0707 66.7702 27.0067 66.8342 26.932L67.2342 28.196C67.0849 28.3453 66.8822 28.4627 66.6262 28.548C66.3702 28.644 66.0449 28.692 65.6502 28.692ZM73.8716 28.5V23.636C73.8716 23.0387 73.7276 22.628 73.4396 22.404C73.1516 22.18 72.7729 22.068 72.3036 22.068C71.8769 22.068 71.4876 22.1747 71.1356 22.388C70.7942 22.6013 70.5222 22.8413 70.3196 23.108V28.5H68.6396V17.828H70.3196V21.828C70.4476 21.6787 70.6022 21.5293 70.7836 21.38C70.9756 21.2307 71.1889 21.0973 71.4236 20.98C71.6582 20.8627 71.9089 20.7667 72.1756 20.692C72.4529 20.6173 72.7462 20.58 73.0556 20.58C73.8876 20.58 74.5116 20.788 74.9276 21.204C75.3436 21.62 75.5516 22.228 75.5516 23.028V28.5H73.8716ZM81.5013 28.692C80.9253 28.692 80.3866 28.596 79.8853 28.404C79.3946 28.212 78.968 27.94 78.6053 27.588C78.2426 27.2253 77.96 26.7933 77.7573 26.292C77.5546 25.7907 77.4533 25.236 77.4533 24.628C77.4533 24.0733 77.5493 23.5507 77.7413 23.06C77.9333 22.5587 78.2 22.1267 78.5413 21.764C78.8933 21.4013 79.3093 21.1133 79.7893 20.9C80.2693 20.6867 80.7973 20.58 81.3733 20.58C81.9493 20.58 82.472 20.6867 82.9413 20.9C83.4106 21.1027 83.8106 21.396 84.1413 21.78C84.472 22.1533 84.728 22.596 84.9093 23.108C85.0906 23.62 85.1813 24.18 85.1813 24.788V25.188H79.2133C79.2453 25.476 79.32 25.7533 79.4373 26.02C79.5653 26.276 79.7306 26.5 79.9333 26.692C80.1466 26.884 80.3973 27.0387 80.6853 27.156C80.984 27.2627 81.3146 27.316 81.6773 27.316C82.0506 27.316 82.44 27.2467 82.8453 27.108C83.2506 26.9587 83.592 26.7453 83.8693 26.468L84.6373 27.572C84.2533 27.9453 83.7893 28.228 83.2453 28.42C82.7013 28.6013 82.12 28.692 81.5013 28.692ZM83.5493 24.004C83.5386 23.78 83.4906 23.5453 83.4053 23.3C83.32 23.0547 83.1866 22.836 83.0053 22.644C82.8346 22.4413 82.616 22.276 82.3493 22.148C82.0826 22.02 81.7573 21.956 81.3733 21.956C81.0106 21.956 80.696 22.02 80.4293 22.148C80.1733 22.2653 79.9546 22.4253 79.7733 22.628C79.6026 22.82 79.4693 23.0387 79.3733 23.284C79.2773 23.5293 79.2186 23.7693 79.1973 24.004H83.5493ZM82.6213 19.892L81.3893 18.356L80.1893 19.892H79.1333L80.6213 17.588H82.1573L83.6933 19.892H82.6213ZM96.5116 28.5V23.46C96.5116 23.044 96.4102 22.708 96.2076 22.452C96.0156 22.196 95.6956 22.068 95.2476 22.068C94.8742 22.068 94.5222 22.18 94.1916 22.404C93.8716 22.6173 93.6262 22.8467 93.4556 23.092V28.5H91.7756V23.46C91.7756 23.044 91.6742 22.708 91.4716 22.452C91.2796 22.196 90.9542 22.068 90.4956 22.068C90.1222 22.068 89.7756 22.18 89.4556 22.404C89.1462 22.6173 88.9009 22.852 88.7196 23.108V28.5H87.0396V20.772H88.7196V21.828C88.7942 21.7107 88.9116 21.5827 89.0716 21.444C89.2422 21.2947 89.4342 21.156 89.6476 21.028C89.8716 20.9 90.1169 20.7933 90.3836 20.708C90.6609 20.6227 90.9436 20.58 91.2316 20.58C91.8076 20.58 92.2716 20.7133 92.6236 20.98C92.9756 21.236 93.2156 21.5773 93.3436 22.004C93.4502 21.8333 93.5942 21.6627 93.7756 21.492C93.9569 21.3213 94.1596 21.1667 94.3836 21.028C94.6182 20.8893 94.8689 20.7827 95.1356 20.708C95.4022 20.6227 95.6796 20.58 95.9676 20.58C96.6822 20.58 97.2316 20.772 97.6156 21.156C97.9996 21.54 98.1916 22.1267 98.1916 22.916V28.5H96.5116Z" fill="white"/>
<g clip-path="url(#clip0_1_31127)">
<rect x="107.5" y="8" width="32" height="32" rx="16" fill="white"/>
<path d="M122.649 19.8516L126.798 24.0003L122.649 28.1493" stroke="#134A9B" stroke-width="1.5" stroke-linecap="round" stroke-linejoin="round"/>
</g>
<defs>
<clipPath id="clip0_1_31127">
<rect x="107.5" y="8" width="32" height="32" rx="16" fill="white"/>
</clipPath>
</defs>
</svg>
