<svg width="49" height="48" viewBox="0 0 49 48" fill="none" xmlns="http://www.w3.org/2000/svg">
<circle cx="24.2021" cy="24" r="24" fill="black" fill-opacity="0.5"/>
<path d="M17.6572 31.0504V18.6811C17.6572 17.6611 17.6572 17.1506 17.8773 16.8488C18.0694 16.5854 18.3656 16.4125 18.6943 16.3711C19.0708 16.3238 19.5326 16.5639 20.4549 17.0436L32.3469 23.2282L32.3512 23.2301C33.3704 23.7601 33.8803 24.0253 34.0475 24.3787C34.1934 24.687 34.1934 25.0429 34.0475 25.3512C33.88 25.7051 33.369 25.9713 32.3469 26.5028L20.4549 32.6875C19.5319 33.1675 19.0709 33.4067 18.6943 33.3593C18.3656 33.318 18.0694 33.1451 17.8773 32.8817C17.6572 32.5799 17.6572 32.0703 17.6572 31.0504Z" fill="white"/>
</svg>
