<svg xmlns="http://www.w3.org/2000/svg" width="25" height="24" viewBox="0 0 25 24" fill="none">
<path d="M10.7249 1.67007C11.3741 0.272288 13.3612 0.272288 14.0104 1.67007L16.2193 6.42656C16.4832 6.99484 17.0221 7.38635 17.6441 7.46174L22.8504 8.09273C24.3804 8.27816 24.9944 10.1681 23.8657 11.2174L20.0246 14.788C19.5657 15.2146 19.3598 15.8481 19.4804 16.463L20.4891 21.6095C20.7855 23.1218 19.1779 24.2899 17.8311 23.5406L13.2482 20.9909C12.7007 20.6863 12.0346 20.6863 11.4871 20.9909L6.9042 23.5406C5.55745 24.2899 3.94979 23.1218 4.24623 21.6095L5.25495 16.463C5.37547 15.8481 5.16964 15.2146 4.71073 14.788L0.86963 11.2174C-0.259143 10.1681 0.354925 8.27816 1.88489 8.09273L7.09119 7.46174C7.7132 7.38635 8.25208 6.99484 8.51599 6.42656L10.7249 1.67007Z" fill="#0d356e"/>
</svg>