<svg width="24" height="16" viewBox="0 0 24 16" fill="none" xmlns="http://www.w3.org/2000/svg">
<g id="Group 57">
<path id="Vector" d="M7.89615 6.58129C8.9496 5.489 8.9496 3.71803 7.89615 2.62574C6.8427 1.53344 5.13472 1.53344 4.08127 2.62574C3.02782 3.71803 3.02782 5.489 4.08127 6.58129C5.13472 7.67359 6.8427 7.67359 7.89615 6.58129Z" fill="white"/>
<path id="Vector_2" d="M8.87806 14.1946C8.38887 14.1941 7.91985 13.9924 7.57389 13.6338C7.22794 13.2752 7.03332 12.7889 7.03272 12.2817C7.0332 11.7744 7.22771 11.2881 7.57357 10.9294C7.91944 10.5707 8.38842 10.3689 8.87761 10.3683H10.2431C10.3284 10.3684 10.4135 10.3746 10.4979 10.387C10.0108 9.60126 9.34043 8.95557 8.54882 8.50967C7.75721 8.06377 6.86994 7.83206 5.96907 7.83599C3.00586 7.84676 0.625977 10.3833 0.625977 13.4581V14.5408C0.625977 14.6475 0.646246 14.7531 0.685626 14.8516C0.725007 14.9502 0.782724 15.0397 0.855485 15.1151C0.928246 15.1905 1.01462 15.2503 1.10968 15.2911C1.20474 15.3319 1.30661 15.3528 1.40948 15.3527H10.5671C10.6699 15.3528 10.7718 15.3319 10.8669 15.2911C10.9619 15.2503 11.0483 15.1905 11.1211 15.1151C11.1938 15.0397 11.2515 14.9502 11.2909 14.8516C11.3303 14.7531 11.3506 14.6475 11.3506 14.5408V13.8085C11.0318 14.0584 10.6432 14.1939 10.2435 14.1946H8.87806Z" fill="white"/>
<path id="Vector_3" d="M19.5983 6.58129C20.6517 5.489 20.6517 3.71803 19.5983 2.62574C18.5448 1.53344 16.8369 1.53344 15.7834 2.62574C14.73 3.71803 14.73 5.489 15.7834 6.58129C16.8369 7.67359 18.5448 7.67359 19.5983 6.58129Z" fill="white"/>
<path id="Vector_4" d="M17.6722 7.83597C15.7979 7.84253 14.1577 8.86013 13.2048 10.3842C13.2815 10.3737 13.3588 10.3684 13.4361 10.3683H14.8016C15.2908 10.3689 15.7598 10.5707 16.1056 10.9294C16.4515 11.2881 16.646 11.7744 16.6465 12.2817C16.6459 12.7888 16.4513 13.275 16.1055 13.6336C15.7596 13.9922 15.2907 14.194 14.8016 14.1946H13.4361C13.0365 14.1939 12.6479 14.0584 12.3291 13.8085V14.5408C12.3291 14.6475 12.3494 14.7531 12.3888 14.8516C12.4281 14.9502 12.4858 15.0397 12.5586 15.1151C12.6314 15.1905 12.7177 15.2503 12.8128 15.2911C12.9079 15.3318 13.0097 15.3528 13.1126 15.3527H22.2697C22.3726 15.3528 22.4745 15.3318 22.5695 15.2911C22.6646 15.2503 22.751 15.1905 22.8237 15.1151C22.8965 15.0397 22.9542 14.9502 22.9936 14.8516C23.033 14.7531 23.0532 14.6475 23.0532 14.5408V13.3958C23.0532 12.664 22.9139 11.9394 22.6433 11.2636C22.3726 10.5877 21.9759 9.97396 21.476 9.45743C20.9761 8.94089 20.3827 8.53177 19.73 8.25353C19.0772 7.97528 18.3779 7.83338 17.6722 7.83597Z" fill="white"/>
<path id="Vector_5" d="M13.4361 13.5389H14.8016C15.123 13.5384 15.431 13.4058 15.6583 13.1702C15.8855 12.9346 16.0134 12.6151 16.0139 12.2819C16.0135 11.9486 15.8857 11.629 15.6585 11.3933C15.4312 11.1576 15.123 11.0249 14.8016 11.0244H13.4361C13.1982 11.0243 12.9657 11.0974 12.7678 11.2343C12.5016 11.4168 12.3153 11.7005 12.2491 12.0242H11.4313C11.3675 11.7108 11.1909 11.4343 10.9374 11.2512C10.7344 11.1033 10.4923 11.0241 10.2443 11.0244H8.87877C8.55724 11.0248 8.24898 11.1574 8.02162 11.3931C7.79426 11.6289 7.66637 11.9485 7.66602 12.2819C7.66649 12.6151 7.79437 12.9346 8.02162 13.1702C8.24887 13.4058 8.55695 13.5384 8.87832 13.5389H10.2438C10.4679 13.5389 10.6876 13.4745 10.8786 13.3529C11.0696 13.2314 11.2245 13.0574 11.326 12.8502C11.3742 12.7519 11.4097 12.6475 11.4317 12.5396H12.2496C12.2723 12.6508 12.3095 12.7583 12.3603 12.8591C12.4623 13.0637 12.6166 13.2353 12.8064 13.3552C12.9961 13.4751 13.2139 13.5386 13.4361 13.5389ZM10.2443 13.0235H8.87877C8.68907 13.0234 8.50716 12.9453 8.37297 12.8062C8.23878 12.6672 8.16329 12.4786 8.16305 12.2819C8.16317 12.0852 8.23855 11.8966 8.37265 11.7574C8.50675 11.6183 8.68862 11.54 8.87832 11.5398H10.2438C10.3898 11.54 10.5323 11.5865 10.652 11.6731C10.7718 11.7597 10.8632 11.8822 10.9139 12.0242H10.8881C10.8273 12.0242 10.7686 12.0474 10.7232 12.0892C10.6777 12.1311 10.6486 12.1888 10.6414 12.2514C10.6414 12.2613 10.6414 12.2716 10.6414 12.2819C10.6414 12.2922 10.6414 12.302 10.6414 12.3119C10.6485 12.3746 10.6775 12.4324 10.723 12.4744C10.7685 12.5163 10.8273 12.5395 10.8881 12.5396H10.9139C10.8631 12.6814 10.7718 12.8037 10.6521 12.8902C10.5325 12.9767 10.3901 13.0232 10.2443 13.0235ZM13.4361 11.5398H14.8016C14.9913 11.54 15.1732 11.6183 15.3073 11.7574C15.4414 11.8966 15.5167 12.0852 15.5169 12.2819C15.5166 12.4785 15.4412 12.667 15.3071 12.806C15.173 12.9451 14.9912 13.0233 14.8016 13.0235H13.4361C13.2901 13.0233 13.1477 12.9769 13.028 12.8904C12.9082 12.8039 12.8168 12.6815 12.766 12.5396H12.8419C12.8856 12.5395 12.9284 12.5274 12.9661 12.5047C13.0039 12.4821 13.0352 12.4495 13.057 12.4103C13.0788 12.3712 13.0903 12.327 13.0904 12.2819C13.0903 12.2367 13.0787 12.1923 13.057 12.1531C13.0351 12.114 13.0038 12.0815 12.966 12.0589C12.9283 12.0363 12.8855 12.0243 12.8419 12.0242H12.766C12.8167 11.8822 12.9081 11.7597 13.0279 11.6731C13.1476 11.5865 13.2901 11.54 13.4361 11.5398Z" fill="white"/>
</g>
</svg>
