<svg width="41" height="41" viewBox="0 0 41 41" fill="none" xmlns="http://www.w3.org/2000/svg">
<circle cx="20.0469" cy="20.8945" r="20" fill="white"/>
<path d="M9.26688 24.1445H14.0269V25.8945H6.76088V24.3545L11.4089 17.7325V17.7185H6.95688V15.9545H14.0129V17.4525L9.26688 24.1165V24.1445ZM19.6608 19.0625H21.4808V25.8945H19.7448V25.0685H19.7028C19.2408 25.6705 18.5408 26.0065 17.6588 26.0065C15.7688 26.0065 14.3968 24.6065 14.3968 22.4925C14.3968 20.4205 15.7828 18.9505 17.6168 18.9505C18.4288 18.9505 19.1288 19.2445 19.6188 19.8325H19.6608V19.0625ZM17.9948 24.3685C18.9468 24.3685 19.7308 23.6265 19.7308 22.5065C19.7308 21.4145 19.0028 20.5885 18.0088 20.5885C17.0288 20.5885 16.2448 21.3305 16.2448 22.5065C16.2448 23.6125 16.9728 24.3685 17.9948 24.3685ZM22.6627 25.8945V15.5905H24.4967V25.8945H22.6627ZM28.9962 26.0065C26.8262 26.0065 25.3702 24.5225 25.3702 22.4785C25.3702 20.4345 26.8262 18.9505 28.9962 18.9505C31.1242 18.9505 32.6362 20.3785 32.6362 22.4785C32.6362 24.5785 31.1242 26.0065 28.9962 26.0065ZM28.9962 24.3685C29.9902 24.3685 30.7742 23.5845 30.7742 22.4785C30.7742 21.3585 30.0182 20.5885 28.9962 20.5885C27.9322 20.5885 27.2182 21.4005 27.2182 22.4785C27.2182 23.5425 27.9602 24.3685 28.9962 24.3685Z" fill="#028FE3"/>
</svg>
